HIERARCHY
ROOT mixamorig:Hips
{
	OFFSET 0.000000 102.625267 -0.521241
	CHANNELS 6 Xposition Yposition Zposition Xrotation Yrotation Zrotation
	JOINT mixamorig:Spine
	{
		OFFSET 0.000000 5.645721 -0.031929
		CHANNELS 3 Xrotation Yrotation Zrotation
		JOINT mixamorig:Spine1
		{
			OFFSET 0.000000 6.586685 -0.037251
			CHANNELS 3 Xrotation Yrotation Zrotation
			JOINT mixamorig:Spine2
			{
				OFFSET 0.000000 7.527618 -0.042572
				CHANNELS 3 Xrotation Yrotation Zrotation
				JOINT mixamorig:Neck
				{
					OFFSET 0.000000 8.468590 -0.047894
					CHANNELS 3 Xrotation Yrotation Zrotation
					JOINT mixamorig:Head
					{
						OFFSET 0.000000 5.998901 -1.158958
						CHANNELS 3 Xrotation Yrotation Zrotation
						JOINT mixamorig:HeadTop_End
						{
							OFFSET 0.000000 21.748810 -4.201760
							CHANNELS 3 Xrotation Yrotation Zrotation
							End Site
							{
								OFFSET 0.000000 22.150970 0.000000
							}
						}
					}
				}
				JOINT mixamorig:LeftShoulder
				{
					OFFSET 3.414614 7.343132 -0.058928
					CHANNELS 3 Xrotation Yrotation Zrotation
					JOINT mixamorig:LeftArm
					{
						OFFSET 6.829548 -2.246910 -0.022071
						CHANNELS 3 Xrotation Yrotation Zrotation
						JOINT mixamorig:LeftForeArm
						{
							OFFSET 24.198503 -0.424179 0.257802
							CHANNELS 3 Xrotation Yrotation Zrotation
							JOINT mixamorig:LeftHand
							{
								OFFSET 21.584717 -0.002335 0.669575
								CHANNELS 3 Xrotation Yrotation Zrotation
								JOINT mixamorig:LeftHandThumb1
								{
									OFFSET 2.193897 -1.259628 1.956942
									CHANNELS 3 Xrotation Yrotation Zrotation
									JOINT mixamorig:LeftHandThumb2
									{
										OFFSET 1.755203 -1.007660 1.565605
										CHANNELS 3 Xrotation Yrotation Zrotation
										JOINT mixamorig:LeftHandThumb3
										{
											OFFSET 2.535126 -0.998764 1.490660
											CHANNELS 3 Xrotation Yrotation Zrotation
											JOINT mixamorig:LeftHandThumb4
											{
												OFFSET 2.398251 -0.721657 1.023775
												CHANNELS 3 Xrotation Yrotation Zrotation
												End Site
												{
													OFFSET 2.205696 -0.773872 1.362551
												}
											}
										}
									}
								}
								JOINT mixamorig:LeftHandIndex1
								{
									OFFSET 7.166248 -0.069405 2.369028
									CHANNELS 3 Xrotation Yrotation Zrotation
									JOINT mixamorig:LeftHandIndex2
									{
										OFFSET 2.989986 -0.015724 0.245918
										CHANNELS 3 Xrotation Yrotation Zrotation
										JOINT mixamorig:LeftHandIndex3
										{
											OFFSET 2.739197 -0.058952 0.219132
											CHANNELS 3 Xrotation Yrotation Zrotation
											JOINT mixamorig:LeftHandIndex4
											{
												OFFSET 2.326500 -0.032570 0.188458
												CHANNELS 3 Xrotation Yrotation Zrotation
												End Site
												{
													OFFSET 2.326485 -0.032578 0.188548
												}
											}
										}
									}
								}
								JOINT mixamorig:LeftHandMiddle1
								{
									OFFSET 7.394897 0.286369 0.654762
									CHANNELS 3 Xrotation Yrotation Zrotation
									JOINT mixamorig:LeftHandMiddle2
									{
										OFFSET 3.376106 0.152466 -0.003692
										CHANNELS 3 Xrotation Yrotation Zrotation
										JOINT mixamorig:LeftHandMiddle3
										{
											OFFSET 3.185104 -0.185410 -0.047914
											CHANNELS 3 Xrotation Yrotation Zrotation
											JOINT mixamorig:LeftHandMiddle4
											{
												OFFSET 2.742905 0.223846 0.010354
												CHANNELS 3 Xrotation Yrotation Zrotation
												End Site
												{
													OFFSET 2.742889 0.224251 0.006757
												}
											}
										}
									}
								}
								JOINT mixamorig:LeftHandRing1
								{
									OFFSET 7.508747 0.282753 -1.072900
									CHANNELS 3 Xrotation Yrotation Zrotation
									JOINT mixamorig:LeftHandRing2
									{
										OFFSET 2.821857 0.317802 -0.177266
										CHANNELS 3 Xrotation Yrotation Zrotation
										JOINT mixamorig:LeftHandRing3
										{
											OFFSET 2.672325 0.088310 -0.196165
											CHANNELS 3 Xrotation Yrotation Zrotation
											JOINT mixamorig:LeftHandRing4
											{
												OFFSET 2.272652 -0.053627 -0.183955
												CHANNELS 3 Xrotation Yrotation Zrotation
												End Site
												{
													OFFSET 2.272919 -0.054016 -0.180438
												}
											}
										}
									}
								}
								JOINT mixamorig:LeftHandPinky1
								{
									OFFSET 7.285820 0.522377 -2.660948
									CHANNELS 3 Xrotation Yrotation Zrotation
									JOINT mixamorig:LeftHandPinky2
									{
										OFFSET 2.466278 0.082008 -0.249570
										CHANNELS 3 Xrotation Yrotation Zrotation
										JOINT mixamorig:LeftHandPinky3
										{
											OFFSET 1.940475 0.021858 -0.202004
											CHANNELS 3 Xrotation Yrotation Zrotation
											JOINT mixamorig:LeftHandPinky4
											{
												OFFSET 1.645287 0.153595 -0.153405
												CHANNELS 3 Xrotation Yrotation Zrotation
												End Site
												{
													OFFSET 1.645088 0.153801 -0.155289
												}
											}
										}
									}
								}
							}
						}
					}
				}
				JOINT mixamorig:RightShoulder
				{
					OFFSET -3.414604 7.343132 -0.036860
					CHANNELS 3 Xrotation Yrotation Zrotation
					JOINT mixamorig:RightArm
					{
						OFFSET -6.829551 -2.246986 0.022068
						CHANNELS 3 Xrotation Yrotation Zrotation
						JOINT mixamorig:RightForeArm
						{
							OFFSET -24.198494 -0.424141 0.158696
							CHANNELS 3 Xrotation Yrotation Zrotation
							JOINT mixamorig:RightHand
							{
								OFFSET -21.584698 -0.002243 0.686977
								CHANNELS 3 Xrotation Yrotation Zrotation
								JOINT mixamorig:RightHandThumb1
								{
									OFFSET -2.242882 -1.296806 1.978855
									CHANNELS 3 Xrotation Yrotation Zrotation
									JOINT mixamorig:RightHandThumb2
									{
										OFFSET -1.794239 -1.037361 1.583064
										CHANNELS 3 Xrotation Yrotation Zrotation
										JOINT mixamorig:RightHandThumb3
										{
											OFFSET -2.504150 -0.962166 1.471556
											CHANNELS 3 Xrotation Yrotation Zrotation
											JOINT mixamorig:RightHandThumb4
											{
												OFFSET -2.346046 -0.743172 0.992235
												CHANNELS 3 Xrotation Yrotation Zrotation
												End Site
												{
													OFFSET -2.157112 -0.792709 1.326359
												}
											}
										}
									}
								}
								JOINT mixamorig:RightHandIndex1
								{
									OFFSET -7.174488 -0.001839 2.366265
									CHANNELS 3 Xrotation Yrotation Zrotation
									JOINT mixamorig:RightHandIndex2
									{
										OFFSET -2.935219 -0.016853 0.287245
										CHANNELS 3 Xrotation Yrotation Zrotation
										JOINT mixamorig:RightHandIndex3
										{
											OFFSET -2.786827 -0.129890 0.255971
											CHANNELS 3 Xrotation Yrotation Zrotation
											JOINT mixamorig:RightHandIndex4
											{
												OFFSET -2.343559 0.168816 0.256164
												CHANNELS 3 Xrotation Yrotation Zrotation
												End Site
												{
													OFFSET -2.344208 0.169510 0.249690
												}
											}
										}
									}
								}
								JOINT mixamorig:RightHandMiddle1
								{
									OFFSET -7.274693 0.327965 0.656181
									CHANNELS 3 Xrotation Yrotation Zrotation
									JOINT mixamorig:RightHandMiddle2
									{
										OFFSET -3.309677 0.091591 0.032863
										CHANNELS 3 Xrotation Yrotation Zrotation
										JOINT mixamorig:RightHandMiddle3
										{
											OFFSET -3.186844 -0.122513 0.000971
											CHANNELS 3 Xrotation Yrotation Zrotation
											JOINT mixamorig:RightHandMiddle4
											{
												OFFSET -2.671951 -0.322540 -0.031001
												CHANNELS 3 Xrotation Yrotation Zrotation
												End Site
												{
													OFFSET -2.671928 -0.323486 -0.021820
												}
											}
										}
									}
								}
								JOINT mixamorig:RightHandRing1
								{
									OFFSET -7.453640 0.430428 -1.170334
									CHANNELS 3 Xrotation Yrotation Zrotation
									JOINT mixamorig:RightHandRing2
									{
										OFFSET -2.808174 0.165817 -0.117934
										CHANNELS 3 Xrotation Yrotation Zrotation
										JOINT mixamorig:RightHandRing3
										{
											OFFSET -2.730080 0.127754 -0.119542
											CHANNELS 3 Xrotation Yrotation Zrotation
											JOINT mixamorig:RightHandRing4
											{
												OFFSET -2.349426 0.078133 -0.107466
												CHANNELS 3 Xrotation Yrotation Zrotation
												End Site
												{
													OFFSET -2.349503 0.077988 -0.106043
												}
											}
										}
									}
								}
								JOINT mixamorig:RightHandPinky1
								{
									OFFSET -7.364456 0.463486 -2.604800
									CHANNELS 3 Xrotation Yrotation Zrotation
									JOINT mixamorig:RightHandPinky2
									{
										OFFSET -2.430134 0.174614 -0.251330
										CHANNELS 3 Xrotation Yrotation Zrotation
										JOINT mixamorig:RightHandPinky3
										{
											OFFSET -1.953583 0.007492 -0.220999
											CHANNELS 3 Xrotation Yrotation Zrotation
											JOINT mixamorig:RightHandPinky4
											{
												OFFSET -1.582039 0.276558 -0.139972
												CHANNELS 3 Xrotation Yrotation Zrotation
												End Site
												{
													OFFSET -1.581284 0.277252 -0.147002
												}
											}
										}
									}
								}
							}
						}
					}
				}
			}
		}
	}
	JOINT mixamorig:LeftUpLeg
	{
		OFFSET 6.620181 -8.816864 -0.447179
		CHANNELS 3 Xrotation Yrotation Zrotation
		JOINT mixamorig:LeftLeg
		{
			OFFSET 2.748989 -36.076775 0.650871
			CHANNELS 3 Xrotation Yrotation Zrotation
			JOINT mixamorig:LeftFoot
			{
				OFFSET 1.089303 -46.239017 1.019056
				CHANNELS 3 Xrotation Yrotation Zrotation
				JOINT mixamorig:LeftToeBase
				{
					OFFSET -0.371088 -10.380511 12.650617
					CHANNELS 3 Xrotation Yrotation Zrotation
					JOINT mixamorig:LeftToe_End
					{
						OFFSET -0.094684 -0.116785 6.663326
						CHANNELS 3 Xrotation Yrotation Zrotation
						End Site
						{
							OFFSET -0.094684 -0.116785 6.663326
						}
					}
				}
			}
		}
	}
	JOINT mixamorig:RightUpLeg
	{
		OFFSET -6.620174 -8.816818 -0.447182
		CHANNELS 3 Xrotation Yrotation Zrotation
		JOINT mixamorig:RightLeg
		{
			OFFSET -2.748991 -36.076790 0.753614
			CHANNELS 3 Xrotation Yrotation Zrotation
			JOINT mixamorig:RightFoot
			{
				OFFSET -1.089311 -46.239029 0.372114
				CHANNELS 3 Xrotation Yrotation Zrotation
				JOINT mixamorig:RightToeBase
				{
					OFFSET 0.371103 -10.380659 13.284531
					CHANNELS 3 Xrotation Yrotation Zrotation
					JOINT mixamorig:RightToe_End
					{
						OFFSET 0.094689 -0.116865 6.675873
						CHANNELS 3 Xrotation Yrotation Zrotation
						End Site
						{
							OFFSET 0.094687 -0.116865 6.675871
						}
					}
				}
			}
		}
	}
}
MOTION
Frames: 4
Frame Time: 0.016667
-0.543126 87.740456 -0.503374 5.362381 -64.590599 8.708130 12.815918 3.282535 -2.913907 5.184389 1.616762 -0.332049 5.159826 1.703078 -0.358521 2.366560 7.489778 -4.090281 -6.483846 36.039094 -6.797082 -0.000000 0.000000 0.000001 -0.169393 -10.604065 -21.588498 -37.190267 4.479125 -24.011761 -9.384326 -83.978699 -9.433300 15.579346 -2.990871 20.425042 9.775923 16.357243 0.858855 6.053998 27.805336 -18.599826 -6.037810 60.816305 17.107020 0.000004 0.000005 -0.000002 17.472853 9.224755 -83.155770 23.312528 4.675906 -117.724102 21.566954 6.194457 -108.116779 0.000001 -0.000001 0.000001 11.592378 8.281172 -86.537677 16.149771 12.964986 -105.880336 18.073350 11.765593 -118.360936 0.000004 0.000000 0.000000 4.991186 7.872700 -92.729544 10.803490 17.923617 -103.552655 10.498660 17.411875 -100.924917 -0.000003 0.000001 0.000000 1.243689 8.584929 -92.369907 8.659889 15.362675 -98.315703 16.024913 19.714783 -130.655481 0.000000 -0.000003 0.000000 0.415297 5.326921 20.059613 -13.580019 60.568130 35.082396 2.230443 113.846631 -2.451203 -19.188337 0.362542 -5.857984 7.289179 -17.786627 4.440304 20.544502 -23.758786 7.065921 17.377531 -52.365298 9.460098 0.000001 -0.000004 -0.000002 19.275863 -8.774041 82.782412 22.821866 -2.963202 115.997731 22.107934 -3.322700 114.153976 0.000002 -0.000002 0.000002 11.485759 -7.534570 85.331199 16.189396 -11.109619 107.924038 15.949334 -10.923166 105.235163 0.000001 0.000003 -0.000001 4.330915 -7.313574 92.054312 11.183926 -15.225701 101.327379 11.710481 -15.181050 103.581076 0.000001 0.000000 0.000000 -3.765935 -7.773533 94.669468 6.267336 -18.769756 95.066965 14.996445 -19.450043 135.720094 -0.000004 -0.000002 0.000002 -43.219262 10.346231 26.047428 45.097956 -5.812628 0.672695 -3.364214 1.175200 -16.951087 -0.000055 -0.000001 -0.000002 0.000000 0.000002 0.000000 -32.786028 -4.574812 -22.515985 61.564900 4.183029 -3.956479 -33.031205 4.144438 14.540865 -0.000030 0.000009 0.000004 -0.000000 -0.000001 -0.000000 
-0.563878 87.705856 -0.495328 5.433337 -64.661858 8.690535 12.798914 3.296017 -2.933487 5.176393 1.623685 -0.339233 5.151665 1.709997 -0.365760 2.351454 7.484050 -4.015676 -6.597106 36.083848 -6.752534 -0.000001 -0.000001 0.000000 -0.155583 -10.563152 -21.439925 -37.116050 4.495467 -24.053408 -9.439343 -84.013321 -9.487978 15.588431 -2.988072 20.381238 9.775923 16.357234 0.858847 6.053989 27.805319 -18.599828 -6.037794 60.816305 17.107011 -0.000001 0.000003 -0.000001 17.472847 9.224743 -83.155770 23.312528 4.675917 -117.724102 21.566952 6.194437 -108.116765 0.000001 -0.000001 0.000000 11.592381 8.281156 -86.537725 16.149762 12.964998 -105.880322 18.073345 11.765593 -118.360949 0.000002 0.000001 0.000001 4.991182 7.872690 -92.729551 10.803489 17.923613 -103.552628 10.498656 17.411843 -100.924931 -0.000001 0.000001 0.000000 1.243703 8.584919 -92.369948 8.659896 15.362672 -98.315696 16.024896 19.714772 -130.655454 0.000000 0.000001 -0.000000 0.412738 5.338958 20.163840 -13.772216 60.475034 35.133202 2.213916 114.004129 -2.436116 -19.185493 0.191112 -5.752910 7.289162 -17.786629 4.440319 20.544499 -23.758777 7.065911 17.377530 -52.365291 9.460107 -0.000001 0.000000 0.000001 19.275853 -8.774059 82.782425 22.821863 -2.963184 115.997731 22.107920 -3.322705 114.153983 -0.000000 -0.000003 0.000002 11.485745 -7.534583 85.331206 16.189399 -11.109618 107.924044 15.949313 -10.923148 105.235170 -0.000002 0.000000 0.000001 4.330899 -7.313585 92.054312 11.183944 -15.225713 101.327400 11.710472 -15.181036 103.581069 -0.000001 0.000001 0.000000 -3.765937 -7.773555 94.669468 6.267341 -18.769749 95.066958 14.996428 -19.450026 135.720107 0.000001 -0.000001 0.000001 -43.288834 10.248972 26.049129 45.262468 -5.759856 0.854694 -3.474739 1.193536 -17.087812 0.000013 -0.000004 -0.000003 0.000000 -0.000005 0.000000 -32.799139 -4.485840 -22.389987 61.645264 4.250761 -3.911222 -33.067985 4.026372 14.476282 0.000016 0.000010 -0.000001 -0.000000 -0.000001 0.000000 
-0.624941 87.662491 -0.487507 5.481318 -64.712798 8.653614 12.797982 3.302768 -2.957168 5.176167 1.627792 -0.347892 5.151332 1.714140 -0.374433 2.328112 7.481376 -3.950796 -6.752441 36.121196 -6.652626 0.000001 -0.000001 0.000000 -0.143096 -10.526670 -21.302163 -37.058322 4.433371 -24.064870 -9.374656 -83.972579 -9.423603 15.534411 -2.980769 20.376599 9.775929 16.357226 0.858861 6.054008 27.805345 -18.599821 -6.037772 60.816305 17.106981 0.000000 0.000005 -0.000002 17.472853 9.224749 -83.155791 23.312525 4.675925 -117.724075 21.566951 6.194453 -108.116758 0.000001 -0.000004 0.000002 11.592381 8.281166 -86.537684 16.149765 12.964999 -105.880322 18.073358 11.765596 -118.360949 0.000004 -0.000000 0.000001 4.991174 7.872703 -92.729537 10.803492 17.923622 -103.552621 10.498650 17.411868 -100.924911 0.000001 -0.000001 0.000001 1.243710 8.584927 -92.369935 8.659888 15.362666 -98.315703 16.024884 19.714793 -130.655440 0.000000 -0.000003 0.000001 0.411324 5.346343 20.220809 -13.925921 60.434566 35.168022 2.203339 114.105885 -2.426496 -19.128918 0.104547 -5.631629 7.289180 -17.786634 4.440315 20.544500 -23.758775 7.065934 17.377538 -52.365312 9.460120 -0.000000 0.000001 -0.000002 19.275851 -8.774051 82.782405 22.821866 -2.963196 115.997704 22.107931 -3.322696 114.153983 -0.000001 0.000001 0.000001 11.485763 -7.534547 85.331206 16.189396 -11.109612 107.924010 15.949318 -10.923147 105.235177 0.000002 0.000002 0.000002 4.330913 -7.313576 92.054332 11.183941 -15.225718 101.327414 11.710498 -15.181040 103.581041 -0.000002 -0.000002 -0.000003 -3.765946 -7.773548 94.669468 6.267334 -18.769751 95.066951 14.996449 -19.450045 135.720094 0.000001 -0.000001 0.000001 -43.331915 10.109901 26.011582 45.458426 -5.664658 1.075674 -3.617658 1.215777 -17.268897 -0.000006 -0.000009 -0.000002 -0.000000 0.000002 -0.000000 -32.803046 -4.452011 -22.312396 61.744500 4.318490 -3.846139 -33.142383 3.960738 14.406761 -0.000053 0.000021 -0.000012 0.000000 0.000001 -0.000000 
-0.689199 87.608948 -0.480189 5.511557 -64.735502 8.608630 12.818110 3.303898 -2.981880 5.186297 1.629665 -0.357218 5.161412 1.716130 -0.383759 2.291780 7.480669 -3.899352 -6.944587 36.142045 -6.508307 0.000001 -0.000000 -0.000000 -0.132703 -10.497132 -21.184674 -37.019202 4.289992 -24.050595 -9.213008 -83.868624 -9.262948 15.428026 -2.962294 20.389966 9.775925 16.357226 0.858848 6.053992 27.805336 -18.599823 -6.037791 60.816312 17.107008 0.000002 0.000006 0.000003 17.472840 9.224733 -83.155764 23.312520 4.675915 -117.724102 21.566954 6.194454 -108.116765 0.000004 -0.000002 -0.000000 11.592380 8.281155 -86.537718 16.149769 12.964989 -105.880336 18.073345 11.765598 -118.360949 -0.000000 -0.000002 0.000002 4.991180 7.872698 -92.729565 10.803509 17.923620 -103.552648 10.498669 17.411863 -100.924945 -0.000001 0.000001 0.000002 1.243695 8.584918 -92.369921 8.659884 15.362675 -98.315703 16.024894 19.714764 -130.655454 0.000000 0.000002 -0.000001 0.411510 5.345200 20.226798 -14.076790 60.409970 35.211193 2.196820 114.168914 -2.420582 -19.010962 0.082015 -5.472371 7.289174 -17.786636 4.440303 20.544487 -23.758774 7.065912 17.377547 -52.365298 9.460107 -0.000001 -0.000001 0.000001 19.275849 -8.774057 82.782405 22.821856 -2.963212 115.997717 22.107943 -3.322709 114.153990 0.000001 0.000001 -0.000001 11.485758 -7.534578 85.331199 16.189401 -11.109613 107.924024 15.949322 -10.923150 105.235183 0.000001 -0.000002 -0.000001 4.330906 -7.313574 92.054305 11.183922 -15.225699 101.327366 11.710481 -15.181040 103.581089 0.000002 0.000000 0.000000 -3.765915 -7.773541 94.669482 6.267345 -18.769739 95.066958 14.996444 -19.450026 135.720094 -0.000001 -0.000001 -0.000001 -43.379464 9.924313 25.908168 45.696319 -5.499156 1.331834 -3.769500 1.239132 -17.472606 0.000021 -0.000012 -0.000000 -0.000000 0.000000 0.000000 -32.827812 -4.457080 -22.295267 61.865900 4.376883 -3.764290 -33.228471 3.948545 14.346718 0.000007 -0.000012 -0.000005 -0.000000 -0.000001 -0.000000 
